<svg xmlns="http://www.w3.org/2000/svg" viewBox="0 0 512 512">
	<path fill="#dac5a7" d="m504.441 172.066-36.506-36.506c-10.078-10.078-26.428-10.078-36.506 0L230.623 336.358a25.657 25.657 0 0 0-6.238 10.095l-18.253 54.758c-.913 2.748-1.203 5.572-1.178 8.38H51.202v25.6H230.402v-.154c2.807.026 5.632-.256 8.38-1.178l54.758-18.253a25.853 25.853 0 0 0 10.095-6.238L504.433 208.57c10.086-10.068 10.086-26.417.008-36.504zM230.623 409.378l18.253-54.758 36.506 36.506-54.759 18.252zm73.02-36.505-36.514-36.514 182.554-182.545 36.506 36.506-182.546 182.553zM137.73 51.2c-42.351 0-76.8 34.449-76.8 76.8s34.449 76.8 76.8 76.8 76.8-34.449 76.8-76.8-34.449-76.8-76.8-76.8zm0 128c-28.279 0-51.2-22.921-51.2-51.2s22.921-51.2 51.2-51.2c28.279 0 51.2 22.921 51.2 51.2s-22.921 51.2-51.2 51.2z"/>
	<path fill="#dac5a7" d="M214.12 225.826c-2.219-12.177-12.817-21.026-25.19-21.026H86.53c-12.373 0-22.972 8.849-25.182 21.026L51.202 281.6H77.22l9.31-51.2h38.4v51.2h25.6v-51.2h38.4l9.31 51.2h26.018l-10.138-55.774zM230.402 76.8h153.6v25.6h-153.6zM51.202 332.8v25.6h142.217l6.682-20.053c.657-1.954 1.732-3.703 2.611-5.547H51.202zM230.402 153.6v25.6h121.181l25.6-25.6z"/>
	<path fill="#dac5a7" d="M413.331 117.444c6.17-6.17 13.722-10.351 21.871-12.74V0H.002v512h435.2V314.027l-25.6 25.6V486.4h-384V25.6h384v95.573l3.729-3.729z"/>
</svg>