<svg xmlns="http://www.w3.org/2000/svg" fill="none" viewBox="0 0 14 14">
    <path
        d="M7 .25a6.75 6.75 0 1 0 0 13.5A6.75 6.75 0 0 0 7 .25M3.743 5.61A1.798 1.798 0 0 1 5.5 3.876a.625.625 0 1 1 0 1.25c-.056 0-.19.03-.305.122c-.096.076-.19.201-.204.438c-.024.387-.126.907-.443 1.315c.317.408.42.928.443 1.315c.014.237.108.362.204.438a.557.557 0 0 0 .305.122a.625.625 0 1 1 0 1.25c-.62 0-1.682-.47-1.757-1.736c-.026-.438-.166-.652-.298-.718L3.22 7.56a.625.625 0 0 1 0-1.118l.225-.112c.132-.066.272-.28.298-.718ZM8.5 3.876c.62 0 1.682.47 1.757 1.736c.026.438.166.652.298.718l.225.112a.625.625 0 0 1 0 1.118l-.225.112c-.132.066-.272.28-.298.718A1.798 1.798 0 0 1 8.5 10.125a.625.625 0 1 1 0-1.25c.056 0 .19-.03.305-.122c.096-.076.19-.201.204-.438c.024-.387.126-.907.443-1.315c-.317-.408-.42-.928-.443-1.315c-.014-.237-.108-.362-.204-.438a.557.557 0 0 0-.305-.122a.625.625 0 1 1 0-1.25Z"/>
    <style>
        path { fill: #0e0e0e; }
        @media (prefers-color-scheme: dark) {
            path { fill: #d8c8b2; }
        }
    </style>
</svg>